<svg id="Layer_1" data-name="Layer 1" xmlns="http://www.w3.org/2000/svg" viewBox="0 0 474 404"><defs><style>.cls-1{fill:#c60032;}</style></defs><title>Logo-Simple</title><path class="cls-1" d="M190.83,238.87l33.59-83.76,19.23,85.7,46.7-168.64,5.4,211.55,22.59-44.85H428.77C455.47,203.79,474,166.35,474,130,474,58.2,418.6,0,350.27,0,299.67,0,256.18,31.91,237,77.61,217.82,31.91,174.33,0,123.73,0,55.4,0,0,58.2,0,130c0,36.35,18.53,73.79,45.23,108.87Z" transform="translate(0)"/><path class="cls-1" d="M328.66,256.87l-48.28,95.86-4.21-164.9L241.92,311.51,219.81,213l-17.6,43.89H59.77C130,339,237,404,237,404s107-65,177.23-147.13Z" transform="translate(0)"/></svg>